HIERARCHY
ROOT Hips
{
  OFFSET 0.0000 0.0000 0.0000
  CHANNELS 6 Xposition Yposition Zposition Zrotation Xrotation Yrotation
  JOINT Chest
  {
    OFFSET -0.1728 10.2870 0.1254
    CHANNELS 3 Zrotation Xrotation Yrotation
    JOINT Chest2
    {
      OFFSET 0.3229 15.8173 -2.6440
      CHANNELS 3 Zrotation Xrotation Yrotation
      JOINT LeftCollar
      {
        OFFSET -0.0683 16.8828 0.2989
        CHANNELS 3 Zrotation Xrotation Yrotation
        JOINT LeftShoulder
        {
          OFFSET 16.0110 -3.0750 2.0528
          CHANNELS 3 Zrotation Xrotation Yrotation
          JOINT LeftElbow
          {
            OFFSET 2.6153 -25.4187 1.7231
            CHANNELS 3 Zrotation Xrotation Yrotation
            JOINT LeftWrist
            {
              OFFSET 2.3595 -22.4741 1.0488
              CHANNELS 3 Zrotation Xrotation Yrotation
              End Site
              {
                  OFFSET 1.4871 -13.9919 1.1523
              }
            }
          }
        }
      }
      JOINT RightCollar
      {
        OFFSET -0.0683 16.8828 0.2989
        CHANNELS 3 Zrotation Xrotation Yrotation
        JOINT RightShoulder
        {
          OFFSET -16.3743 -2.4390 2.0841
          CHANNELS 3 Zrotation Xrotation Yrotation
          JOINT RightElbow
          {
            OFFSET -2.6865 -25.0857 1.2959
            CHANNELS 3 Zrotation Xrotation Yrotation
            JOINT RightWrist
            {
              OFFSET -2.3810 -22.8348 1.0329
              CHANNELS 3 Zrotation Xrotation Yrotation
              End Site
              {
                  OFFSET -1.4652 -14.7234 1.0705
              }
            }
          }
        }
      }
      JOINT Neck
      {
        OFFSET -0.0683 16.8828 0.2989
        CHANNELS 3 Zrotation Xrotation Yrotation
        JOINT Head
        {
          OFFSET 0.1300 11.4121 4.7143
          CHANNELS 3 Zrotation Xrotation Yrotation
          End Site
          {
              OFFSET 0.0452 18.0438 0.3379
          }
        }
      }
    }
  }
  JOINT LeftHip
  {
    OFFSET 9.3186 -0.0408 3.5432
    CHANNELS 3 Zrotation Xrotation Yrotation
    JOINT LeftKnee
    {
      OFFSET -0.5435 -48.8357 0.3144
      CHANNELS 3 Zrotation Xrotation Yrotation
      JOINT LeftAnkle
      {
        OFFSET 0.2027 -38.4920 -4.2946
        CHANNELS 3 Zrotation Xrotation Yrotation
        End Site
        {
            OFFSET 1.1879 -7.4484 17.8063
        }
      }
    }
  }
  JOINT RightHip
  {
    OFFSET -10.0712 -0.0749 3.1483
    CHANNELS 3 Zrotation Xrotation Yrotation
    JOINT RightKnee
    {
      OFFSET 0.3157 -48.5179 0.1055
      CHANNELS 3 Zrotation Xrotation Yrotation
      JOINT RightAnkle
      {
        OFFSET -1.1248 -38.4399 -3.4305
        CHANNELS 3 Zrotation Xrotation Yrotation
        End Site
        {
            OFFSET -1.3336 -7.3741 17.3830
        }
      }
    }
  }
}
MOTION
Frames:	16
Frame Time:	0.033333
-59.6073 59.4132 -61.4723 14.16 40.66 -11.09 16.75 2.55 14.48 16.78 2.57 14.54 -0.18 -0.70 0.26 85.69 -8.86 -29.41 8.82 -35.41 -2.92 5.96 -9.00 2.44 -0.01 -0.80 0.01 -87.14 -16.63 9.39 -14.35 -3.57 3.34 5.70 11.05 18.64 -6.44 -3.97 -1.49 -6.07 3.34 -1.43 -9.55 -33.36 3.10 -98.72 87.58 101.33 0.13 -21.71 -7.89 159.65 -56.85 -176.60 8.51 78.76 -10.05 13.13 2.77 7.57 
-60.1889 58.7763 -62.2150 11.12 38.47 -7.97 15.97 2.24 16.03 16.00 2.26 16.09 -0.18 -0.70 0.26 84.93 -4.94 -30.72 8.99 -31.54 -2.70 4.82 -8.48 3.22 -0.01 -0.80 0.01 -86.94 -16.45 10.50 -14.33 -3.86 3.34 5.48 10.88 20.67 -4.48 -3.13 -4.04 -3.79 4.17 -4.00 -7.52 -31.61 1.85 -134.24 86.54 136.90 0.09 -22.62 -9.06 160.35 -59.07 -177.21 7.83 78.99 -9.59 13.46 3.01 7.14 
-60.7883 58.0820 -62.6711 8.44 36.04 -5.45 15.06 1.89 17.47 15.08 1.92 17.52 -0.18 -0.70 0.26 84.14 -1.44 -31.19 9.14 -27.71 -2.51 3.66 -7.97 3.70 -0.01 -0.80 0.01 -86.04 -16.80 11.41 -14.32 -4.26 3.33 5.16 10.67 22.18 -2.71 -2.17 -6.54 -1.72 5.09 -6.52 -5.44 -29.65 0.77 -149.46 84.95 152.16 0.06 -23.00 -10.15 160.63 -61.26 -178.50 7.40 79.56 -9.27 13.59 2.97 6.91 
-61.4039 57.3674 -62.8920 6.14 33.46 -3.38 14.02 1.53 18.73 14.04 1.55 18.79 -0.18 -0.70 0.26 83.14 1.62 -30.77 9.26 -23.97 -2.34 2.44 -7.40 3.40 -0.01 -0.80 0.01 -84.61 -17.63 12.28 -14.30 -4.75 3.33 4.83 10.40 23.29 -1.12 -1.09 -8.96 0.16 6.13 -8.98 -3.48 -27.46 -0.24 -156.40 83.39 159.13 0.06 -23.13 -10.86 160.71 -63.44 179.89 7.37 80.38 -9.31 13.51 2.69 6.80 
-62.0520 56.6999 -62.9298 4.18 30.84 -1.52 12.89 1.13 19.76 12.91 1.15 19.82 -0.18 -0.70 0.26 81.80 4.21 -29.62 9.37 -20.46 -2.19 1.06 -6.62 2.16 -0.01 -0.80 0.01 -82.85 -18.82 13.29 -14.27 -5.28 3.33 4.54 10.07 24.01 0.34 0.07 -11.26 1.90 7.24 -11.33 -1.70 -25.09 -1.34 -159.94 82.10 162.70 0.06 -23.27 -11.27 160.87 -65.66 178.33 8.16 81.39 -10.17 13.22 2.17 6.60 
-62.7553 56.1463 -62.8220 2.49 28.14 0.35 11.68 0.79 20.53 11.71 0.81 20.58 -0.18 -0.70 0.26 80.07 6.30 -28.01 9.45 -17.32 -2.06 -0.47 -5.57 0.14 -0.01 -0.80 0.01 -80.85 -20.25 14.49 -14.25 -5.84 3.33 4.23 9.71 24.30 1.77 1.20 -13.37 3.59 8.31 -13.50 -0.08 -22.55 -2.68 -161.85 81.16 164.64 0.07 -23.45 -11.65 161.35 -68.08 177.16 9.86 82.48 -11.99 12.80 1.44 6.18 
-63.5264 55.7312 -62.5893 1.01 25.42 2.34 10.43 0.49 21.01 10.45 0.51 21.07 -0.18 -0.70 0.26 78.04 7.98 -26.41 9.51 -14.76 -1.96 -2.07 -4.27 -2.26 -0.01 -0.80 0.01 -78.65 -21.85 15.89 -14.23 -6.43 3.32 3.95 9.36 24.16 3.23 2.21 -15.25 5.28 9.26 -15.44 1.49 -19.98 -4.27 -162.91 80.52 165.71 0.07 -23.64 -12.14 162.15 -70.68 176.47 12.36 83.57 -14.57 12.40 0.51 5.58 
-64.3567 55.4141 -62.2460 -0.30 22.72 4.43 9.13 0.30 21.28 9.15 0.31 21.33 -0.18 -0.70 0.26 75.83 9.35 -25.25 9.55 -12.74 -1.89 -3.59 -2.88 -4.64 -0.01 -0.80 0.01 -76.28 -23.58 17.37 -14.20 -7.03 3.32 3.74 9.04 23.79 4.69 3.05 -16.91 6.95 10.04 -17.15 3.09 -17.47 -6.10 -163.60 80.06 166.41 0.07 -23.66 -12.75 163.19 -73.39 176.23 15.93 84.66 -18.19 12.11 -0.62 4.82 
-65.2177 55.1092 -61.8102 -1.45 20.12 6.55 7.81 0.12 21.43 7.83 0.14 21.48 -0.18 -0.70 0.26 73.52 10.49 -24.71 9.58 -11.24 -1.84 -4.87 -1.58 -6.80 -0.01 -0.80 0.01 -73.76 -25.43 18.80 -14.17 -7.63 3.32 3.68 8.78 23.53 6.10 3.67 -18.38 8.53 10.60 -18.68 4.74 -15.16 -8.06 -164.13 79.66 166.95 0.08 -23.49 -13.39 164.38 -76.03 176.33 21.24 85.79 -23.46 11.98 -1.88 4.07 
-66.0736 54.7340 -61.3065 -2.42 17.62 8.60 6.46 0.01 21.56 6.48 0.02 21.61 -0.18 -0.70 0.26 71.17 11.40 -24.73 9.61 -10.01 -1.79 -5.82 -0.49 -8.79 -0.01 -0.80 0.01 -71.17 -27.37 20.04 -14.15 -8.20 3.32 3.74 8.62 23.64 7.37 4.07 -19.73 9.97 10.94 -20.07 6.42 -12.99 -10.07 -164.64 79.26 167.47 0.09 -23.21 -13.97 165.84 -78.46 176.83 31.35 86.97 -33.52 11.95 -3.23 3.28 
-66.8926 54.2535 -60.7595 -3.18 15.26 10.53 5.09 -0.08 21.71 5.11 -0.08 21.76 -0.18 -0.70 0.26 68.73 12.01 -25.02 9.63 -9.03 -1.76 -6.47 0.39 -10.84 -0.01 -0.80 0.01 -68.60 -29.33 21.07 -14.13 -8.74 3.32 3.79 8.60 24.03 8.48 4.25 -20.96 11.22 11.07 -21.34 8.06 -10.95 -12.02 -165.09 78.87 167.93 0.10 -22.98 -14.44 167.80 -80.64 177.95 55.44 88.04 -57.53 11.93 -4.60 2.54 
-67.6500 53.6897 -60.1861 -3.67 12.99 12.28 3.64 -0.05 21.92 3.66 -0.04 21.97 -0.18 -0.70 0.26 66.13 12.30 -25.35 9.64 -8.18 -1.73 -6.89 1.12 -13.05 -0.01 -0.80 0.01 -66.06 -31.28 22.00 -14.10 -9.28 3.32 3.71 8.69 24.32 9.45 4.29 -22.12 12.33 11.06 -22.52 9.59 -8.93 -13.85 -165.39 78.59 168.24 0.11 -22.89 -14.72 170.81 -82.61 -179.78 105.46 88.28 -107.53 11.89 -5.94 1.88 
-68.3258 53.1002 -59.5911 -3.84 10.83 13.83 2.14 0.06 22.19 2.16 0.06 22.23 -0.18 -0.70 0.26 63.36 12.33 -25.64 9.65 -7.55 -1.71 -7.21 1.77 -15.30 -0.01 -0.80 0.01 -63.45 -33.17 23.06 -14.08 -9.84 3.32 3.47 8.78 24.24 10.32 4.27 -23.17 13.31 10.99 -23.59 10.89 -6.89 -15.47 -165.52 78.47 168.37 0.11 -22.94 -14.77 175.48 -84.44 -175.65 139.93 87.35 -141.98 11.83 -7.25 1.34 
-68.9033 52.5428 -58.9710 -3.67 8.77 15.18 0.57 0.22 22.50 0.59 0.22 22.54 -0.18 -0.70 0.26 60.48 12.26 -26.00 9.66 -7.11 -1.69 -7.57 2.35 -17.18 -0.01 -0.80 0.01 -60.60 -35.02 24.47 -14.06 -10.41 3.32 3.19 8.69 23.91 11.15 4.30 -24.14 14.25 10.96 -24.58 11.93 -4.78 -16.85 -165.48 78.51 168.32 0.11 -23.04 -14.55 -176.68 -86.17 -168.10 153.68 86.01 -155.71 11.76 -8.53 0.94 
-69.3711 52.0512 -58.3205 -3.21 6.84 16.30 -0.98 0.35 22.82 -0.96 0.35 22.85 -0.18 -0.70 0.26 57.52 12.29 -26.54 9.66 -6.91 -1.69 -8.05 2.88 -18.38 -0.01 -0.80 0.01 -57.31 -36.88 26.49 -14.03 -10.98 3.32 2.96 8.34 23.70 11.93 4.41 -24.97 15.13 11.03 -25.43 12.66 -2.61 -17.97 -165.21 78.76 168.04 0.10 -23.14 -14.10 -159.66 -87.77 -151.11 160.09 84.62 -162.10 11.71 -9.79 0.62 
-69.7244 51.6291 -57.6404 -2.55 5.09 17.19 -2.49 0.38 23.14 -2.47 0.37 23.18 -0.18 -0.70 0.26 54.55 12.54 -27.32 9.67 -6.80 -1.68 -8.67 3.37 -18.90 -0.01 -0.80 0.01 -53.42 -38.69 29.30 -14.01 -11.57 3.32 2.87 7.76 23.93 12.69 4.65 -25.71 15.98 11.23 -26.20 13.13 -0.44 -18.85 -164.70 79.21 167.53 0.09 -23.23 -13.52 -108.85 -88.73 -100.14 163.66 83.25 -165.66 11.69 -11.03 0.39 
